<?xml version="1.0" encoding="utf-8"?>
<!-- Generator: Adobe Illustrator 16.0.0, SVG Export Plug-In . SVG Version: 6.00 Build 0)  -->
<!DOCTYPE svg PUBLIC "-//W3C//DTD SVG 1.1//EN" "http://www.w3.org/Graphics/SVG/1.1/DTD/svg11.dtd">
<svg version="1.1" id="Layer_1" xmlns="http://www.w3.org/2000/svg" xmlns:xlink="http://www.w3.org/1999/xlink" x="0px" y="0px"
	 width="292.249px" height="127.681px" viewBox="0 0 292.249 127.681" enable-background="new 0 0 292.249 127.681"
	 xml:space="preserve">
<g>
	<path fill="#FFFFFF" d="M76.551,2.552c0.646,0,1.122,0.51,1.122,1.088v7.989c0,1.972-1.632,3.008-3.247,3.008
		c-1.632,0-3.195-1.189-3.195-3.484h1.411c0,1.343,0.918,2.04,1.819,2.04s1.785-0.544,1.785-1.563l-0.034-7.667h-1.904v-1.41H76.551
		z"/>
	<path fill="#FFFFFF" d="M88.995,2.552v9.145c0,1.921-1.598,2.89-3.213,2.89s-3.196-0.969-3.196-2.89V2.552h1.377
		c0,1.972,0,8.192,0,9.145c0.068,0.901,0.986,1.479,1.836,1.479c0.918,0,1.785-0.511,1.785-1.479V2.552H88.995z"/>
	<path fill="#FFFFFF" d="M95.115,14.45c-0.578,0.034-1.173-0.425-1.173-1.088V2.552h1.428l0.017,10.487h4.114v1.411H95.115z"/>
	<path fill="#FFFFFF" d="M105.061,9.316v5.134h-1.411V9.282c-0.357-0.85-0.714-1.699-1.104-2.601
		c-0.544-1.224-1.275-2.957-1.751-4.13h1.496c0.493,1.121,1.479,3.739,1.921,4.844l0.153,0.918c0.017-0.136,0.102-0.781,0.136-0.935
		c0.391-0.952,1.53-3.943,1.904-4.827h1.53L105.061,9.316z"/>
	<path fill="#FFFFFF" d="M126.293,7.26c-0.017,1.683-1.207,2.703-2.924,2.703c-0.867,0-1.734,0.441-1.734,1.359v1.769h4.419v1.359
		h-5.031c-0.646,0-0.731-0.17-0.731-0.765v-2.363c0-1.869,1.496-2.72,3.077-2.72c0.867,0,1.547-0.476,1.547-1.343V5.696
		c0-0.901-0.799-1.377-1.615-1.377c-0.833,0-1.649,0.595-1.666,1.836h-1.343c0-2.125,1.479-3.213,3.009-3.213
		c1.461,0,2.992,0.9,2.992,2.754V7.26z"/>
	<path fill="#FFFFFF" d="M132.124,11.884c0-0.646,0.204-1.275,0.51-1.734c0.204-0.408,2.703-3.773,2.838-3.927
		c0.153-0.237,0.306-0.611,0.306-0.85V4.302h-4.708V2.926h5.337c0.459,0,0.714,0.255,0.714,0.73V5.39
		c0,0.562-0.17,1.174-0.562,1.666l-2.805,3.859v-0.018c-0.187,0.289-0.272,0.612-0.272,0.986v2.566h-1.36V11.884z"/>
	<path fill="#FFFFFF" d="M146.947,8.79v1.377h-5.253V8.79H146.947z"/>
	<path fill="#FFFFFF" d="M158.236,7.26c-0.018,1.683-1.207,2.703-2.924,2.703c-0.867,0-1.734,0.441-1.734,1.359v1.769h4.42v1.359
		h-5.031c-0.646,0-0.731-0.17-0.731-0.765v-2.363c0-1.869,1.496-2.72,3.077-2.72c0.867,0,1.547-0.476,1.547-1.343V5.696
		c0-0.901-0.799-1.377-1.615-1.377c-0.833,0-1.648,0.595-1.666,1.836h-1.343c0-2.125,1.479-3.213,3.009-3.213
		c1.462,0,2.992,0.9,2.992,2.754V7.26z"/>
	<path fill="#FFFFFF" d="M169.455,11.832c0,1.888-1.479,2.737-3.009,2.737c-0.867,0-1.733-0.221-2.703-1.224l1.055-0.901
		c0.577,0.595,1.104,0.748,1.648,0.748c0.833,0,1.666-0.442,1.666-1.36V9.436c-0.357,0.782-1.156,1.071-1.7,1.071
		c-1.614,0-3.06-0.851-3.06-2.72V5.679c0-1.869,1.513-2.771,3.06-2.771c1.513,0,3.043,0.901,3.043,2.771V11.832z M164.695,7.787
		c0,0.9,0.816,1.359,1.717,1.359c0.85,0,1.7-0.459,1.7-1.41V5.679c0-0.918-0.867-1.394-1.683-1.394c-0.851,0-1.7,0.476-1.734,1.394
		V7.787z"/>
	<path fill="#FFFFFF" d="M188.648,7.26c-0.018,1.683-1.207,2.703-2.924,2.703c-0.867,0-1.734,0.441-1.734,1.359v1.769h4.42v1.359
		h-5.031c-0.646,0-0.731-0.17-0.731-0.765v-2.363c0-1.869,1.496-2.72,3.077-2.72c0.867,0,1.547-0.476,1.547-1.343V5.696
		c0-0.901-0.799-1.377-1.615-1.377c-0.833,0-1.648,0.595-1.666,1.836h-1.343c0-2.125,1.479-3.213,3.009-3.213
		c1.462,0,2.992,0.9,2.992,2.754V7.26z"/>
	<path fill="#FFFFFF" d="M193.765,5.696c0-1.836,1.513-2.737,3.094-2.737c1.513,0,3.06,0.901,3.06,2.737v6.068
		c0,1.887-1.547,2.787-3.06,2.787c-1.581,0-3.094-0.9-3.094-2.787V5.696z M195.125,11.765c0,0.935,0.85,1.411,1.733,1.411
		c0.833,0,1.7-0.477,1.7-1.411V5.696c0-0.884-0.867-1.36-1.7-1.36c-0.884,0-1.733,0.477-1.733,1.36V11.765z"/>
	<path fill="#FFFFFF" d="M206.48,2.926c0.51,0,0.731,0.288,0.731,0.765v10.76h-1.36V4.302h-1.343V2.926H206.48z"/>
	<path fill="#FFFFFF" d="M215.336,2.772c1.462,0,2.992,0.884,2.992,2.703V6.41c0,0.714-0.442,1.699-1.377,2.022
		c0.918,0.17,1.444,1.326,1.444,2.057v1.292c0,1.904-1.563,2.822-3.076,2.822c-1.581,0-3.094-0.918-3.094-2.822v-1.292
		c0-0.714,0.544-1.869,1.547-2.039c-1.02-0.222-1.462-1.36-1.462-2.04V5.476C212.311,3.656,213.789,2.772,215.336,2.772z
		 M214.911,9.13c-0.73,0.017-1.325,0.611-1.325,1.359v1.292c0,0.936,0.85,1.445,1.733,1.445c0.85,0,1.717-0.51,1.717-1.445v-1.292
		c0-0.748-0.595-1.343-1.309-1.359H214.911z M215.336,4.132c-0.85,0-1.683,0.477-1.683,1.344V6.41c0,0.765,0.527,1.377,1.309,1.394
		c0.204,0.018,0.459,0.018,0.697,0c0.765-0.017,1.309-0.646,1.309-1.394V5.476C216.968,4.608,216.135,4.132,215.336,4.132z"/>
</g>
<g id="LOGO">
	<g>
		<path fill="#FFFFFF" d="M23.321,69.105c1.614,0.672,3.314,1.48,5.058,2.41c2.809-7.246,5.841-15.055,9.699-24.975l10.34,26.4
			c-4.948,0-10.788-0.44-15.479,1.249c1.642,1.048,3.293,2.188,4.925,3.438c2.648,2.24,5.398,4.693,7.879,7.346
			c0-0.041-0.007-0.081-0.007-0.121c-0.086-4.285,2.287-8.646,7.423-11.692c0.098-0.055-5.999,4.552-4.163,11.677
			c0.131,0.697,0.349,1.415,0.608,2.143c1.466,0.016,2.892,0.041,4.204,0.041l5.188,13.738c0.599,0.578,1.217,1.155,1.869,1.729
			c0.104,0.091,0.203,0.175,0.305,0.264h2.602c-0.963-1.922-2.037-4.117-2.87-6.552c-1.282-4.204-2.219-9.026-0.909-13.792
			c0.65-2.568,2.114-5.095,4.253-7.402L45.447,26.191c-10.12-1.76-15.51,2.09-18.48,9.79L14.953,67.013
			C15.845,67.118,19.475,67.49,23.321,69.105z"/>
		<path fill="#FFFFFF" d="M12.821,95.824c-1.706-3.257-3.594-6.95-4.866-10.736L3.542,96.486c2.282,1.987,4.647,4.103,6.973,6.266
			h5.704C15.006,100.67,13.969,98.303,12.821,95.824z"/>
		<path fill="#FFFFFF" d="M70.07,99.884c-1-2.961-1.332-6.461-0.039-9.847L64.92,76.764c-0.89,1.682-1.56,3.619-1.689,5.794
			c-0.369,3.944,0.759,8.501,2.688,13.252c0.958,2.179,2.276,4.597,3.557,6.942h1.503C70.623,101.84,70.307,100.885,70.07,99.884z"
			/>
		<path fill="#FFFFFF" d="M2.148,100.088l-1.031,2.664h3.535C3.851,101.907,3.013,101.017,2.148,100.088z"/>
		<path fill="#FFFFFF" d="M16.619,93.43c0.372,0.607,0.748,1.22,1.126,1.836c0.304,0.489,0.588,0.99,0.867,1.494
			c0.09-0.234,0.18-0.466,0.27-0.698C18.169,95.217,17.415,94.338,16.619,93.43z"/>
		<path fill="#FFFFFF" d="M26.6,71.77c-2.961-1.969-6.472-3.858-11.649-4.751L9.757,80.435c0.152,0.402,0.309,0.807,0.496,1.222
			c0.209,0.528,0.442,1.066,0.691,1.612c3.297,2.588,6.513,5.491,9.578,8.55c0.541-1.399,1.069-2.766,1.59-4.114
			c-3.299-2.68-7.102-5.271-10.935-7.493c-0.055-0.025-0.086-0.042-0.076-0.045c0.025,0.015,0.051,0.03,0.076,0.045
			c0.662,0.304,5.847,2.227,11.672,5.588c1.712-4.428,3.357-8.678,5.075-13.109C27.482,72.382,27.04,72.074,26.6,71.77z"/>
		<path fill="#FFFFFF" d="M34.858,78.152c-1.097-1.083-2.378-2.133-3.74-3.161c-0.771,0.409-1.501,0.891-2.171,1.471
			c-3.211,2.743-4.625,7.396-2.846,11.316c2.631,1.684,5.088,3.647,7.24,5.777c0.185,0.06,0.365,0.121,0.556,0.177
			c-0.675-2.178-0.099-3.661,1.268-4.671c-2.044-3.545-3.877-7.196-4.912-10.402c0.04-0.004,2.893,3.435,7.095,8.359
			c0.216,0.253,0.448,0.526,0.67,0.787c1.377-0.366,2.99-0.579,4.71-0.697C40.555,84.177,37.808,81.135,34.858,78.152z"/>
	</g>
	<g>
		<path fill="#FFFFFF" d="M80.389,81.018c-1.115,0.75-2.371,1.717-3.505,2.896v18.838h3.895c-1.139-2.464-2.724-6.06-2.601-10.053
			C77.957,89.136,78.245,85.011,80.389,81.018z"/>
		<path fill="#FFFFFF" d="M91.064,94.742c-0.016-0.221-0.034-0.449-0.05-0.673c-0.756,2.783-0.884,5.721-0.443,8.683h0.833
			c0-1.958,0-3.917,0-5.875C91.288,96.182,91.175,95.474,91.064,94.742z"/>
		<path fill="#FFFFFF" d="M84.633,79.58c-1.913,3.799-2.148,8.219-1.356,12.995c0.083,2.292,0.856,4.61,1.763,6.919
			c0.04-0.639,0.099-1.287,0.205-1.955c0.5-3.368,2.267-7.063,5.553-10.578c0.076-1.424,0.25-2.867,0.606-4.313
			c0-1.85,0-3.698,0-5.548c-0.631-1.196-1.288-2.371-1.977-3.509C87.418,75.195,85.62,77.183,84.633,79.58z"/>
		<path fill="#FFFFFF" d="M80.815,80.271c0.211-0.353,0.432-0.703,0.675-1.053c1.55-2.377,4.049-4.684,7.307-6.639
			c-0.371-0.586-0.747-1.165-1.133-1.728c-0.032,0.002,0.56,0.536,1.518,1.499c0.707-0.411,1.449-0.803,2.222-1.178
			c0-10.374,0-20.748,0-31.122h12.43c16.831,0,14.63,23.101,2.75,25.3c-3.3,0.551-10.89,0.11-12.43-2.97
			c-1.611,2.264-2.544,5.457-2.129,8.491c2.214-1.019,4.68-1.88,7.361-2.521c0.154-0.036-3.445,1.03-7.218,3.331
			c0.218,0.983,0.584,1.938,1.131,2.828c0.326,0.387,0.773,0.911,1.334,1.562c2.436-2.944,6.286-5.569,11.786-7.122
			c0.114,0.035-2.635,0.896-5.472,2.928c-1.937,1.361-3.593,3.29-4.674,5.605c1.324,0.847,2.993,1.5,5.049,1.885
			c4.112-2.116,8.801-3.922,13.584-5.301c0.325,0.061-5.576,1.856-11.599,5.578c0.789,0.072,1.619,0.115,2.506,0.115
			c30.8,0,35.86-54.01,0.11-54.01h-16.94c-8.8,0-12.1,5.5-12.1,13.53v43.115C78.088,81.628,79.408,80.915,80.815,80.271z"/>
		<path fill="#FFFFFF" d="M89.977,73.165c0.435,0.453,0.913,0.966,1.427,1.537c0-0.847,0-1.692,0-2.538
			C90.924,72.477,90.447,72.812,89.977,73.165z"/>
	</g>
	<g>
		<path fill="#FFFFFF" d="M145.689,86.598c1.991-1.418,4.153-2.808,6.439-4.147c-1.199-1.25-2.234-2.589-3.104-4.02
			c-0.261,0.134-0.522,0.271-0.786,0.413c-0.898,1.32-1.616,2.817-1.94,4.501C146.014,84.381,145.823,85.471,145.689,86.598z"/>
		<path fill="#FFFFFF" d="M170.5,90.531c-1.257-0.011-2.478-0.113-3.669-0.29c-0.267,1.802-0.44,3.675-0.578,5.598
			c-0.072,1.41-0.242,2.997-0.441,4.544c0.575-1.338,1.339-2.786,2.102-4.285C168.565,94.385,169.391,92.477,170.5,90.531z"/>
		<path fill="#FFFFFF" d="M174.898,98.018c1.393-3.858,5.376-7.97,10.975-11.568c-0.026-0.394-0.041-0.789-0.05-1.186
			c-3.252,2.625-6.897,4.283-10.937,4.944c-0.723,1.917-1.304,3.978-1.9,6.137c-0.899,2.743-2.677,5.721-2.381,8.164
			c0.052,0,0.102,0.003,0.153,0.003c0.746,0,1.482-0.021,2.212-0.057C173.24,102.534,173.95,100.342,174.898,98.018z"/>
		<path fill="#FFFFFF" d="M187.457,94.229c-0.529-1.602-0.978-3.322-1.271-5.106c-2.873,2.684-5.152,5.815-6.203,9.087
			c-0.455,1.808-1.07,3.723-1.336,5.586c3.729-0.705,7.225-1.935,10.503-3.681c0.063-0.189,0.134-0.389,0.2-0.581
			C188.639,97.888,188.029,96.104,187.457,94.229z"/>
		<path fill="#FFFFFF" d="M160.301,88.328c-2.019-0.924-3.925-2.126-5.713-3.616c-0.368-0.298-0.725-0.602-1.07-0.911
			c-0.443,0.316-0.887,0.635-1.333,0.965c-2.359,1.783-4.667,3.77-6.732,5.9c-0.01,1.674,0.063,3.407,0.167,5.176
			c1.134,0.938,2.305,1.8,3.514,2.585c0.472-0.56,0.973-1.125,1.542-1.7C153.154,94.067,156.157,91.086,160.301,88.328z"/>
		<path fill="#FFFFFF" d="M161.627,40.052c2.75-0.99,5.611-1.43,8.801-1.43c7.04,0,12.87,2.53,17.82,7.48
			c4.84,5.061,7.26,11.221,7.26,18.48c0,1.11-0.073,2.181-0.184,3.232c0.361-0.23,0.734-0.455,1.12-0.676
			c0.021-0.013-0.455,0.331-1.16,0.979c-0.593,5.149-2.515,9.606-5.77,13.498c0.022,0.834,0.101,1.693,0.22,2.57
			c4.551-2.429,9.847-4.497,15.517-5.909c0.219,0.046-7.941,2.597-15.21,7.728c0.42,2.098,1.072,4.285,1.923,6.524
			c1.297-3.237,2.713-6.497,4.086-9.361c0.196-0.067-0.067,5.822-1.163,13.178c1.309-1.033,2.581-2.153,3.811-3.383
			c7.701-7.7,11.44-17.16,11.44-28.271c0-11.22-3.851-20.79-11.66-28.6c-7.7-7.81-17.05-11.771-27.83-11.771
			c-7.149,0-13.75,1.76-20.021,5.39c-4.289,2.53-8.029,5.72-11.109,9.57C146.558,34.881,156.348,35.211,161.627,40.052z"/>
		<path fill="#FFFFFF" d="M137.483,86.838c0.905,1.347,1.902,2.656,2.993,3.929c0.174-0.158,0.348-0.316,0.526-0.475
			c0.345-2.355,0.937-4.791,2.093-7.199c0.27-0.579,0.585-1.159,0.94-1.734c-1.607,1.079-3.185,2.293-4.628,3.648
			C138.745,85.594,138.108,86.21,137.483,86.838z"/>
		<path fill="#FFFFFF" d="M138.748,66.838c0.201-0.026-3.312,0.799-7.614,2.701c0.636,5.456,2.292,10.519,5.003,15.165
			c2.818-2.118,6.066-4.114,9.756-5.845c0.647-0.737,1.374-1.453,2.185-2.139c-1.511-3.062-2.343-6.513-2.509-10.379
			c-0.55-14.41,11.55-17.49,17.16-10.78c4.62-17.82-21.78-20.68-28.931-6.38c-2.199,4.29-2.97,10.891-2.97,15.18
			c0,1.559,0.086,3.086,0.239,4.586C133.479,68.098,136.052,67.382,138.748,66.838z"/>
		<path fill="#FFFFFF" d="M161.146,95.814c0.334-1.813,0.712-3.75,1.279-5.733c-2.564,2.196-4.809,4.651-6.871,7.27
			c-0.882,1.094-1.698,2.213-2.42,3.344c2.125,1.027,4.354,1.838,6.681,2.45C160.095,100.996,160.836,98.537,161.146,95.814z"/>
	</g>
	<g>
		<path fill="#FFFFFF" d="M229.424,77.209c0.241,0.007-7.486,2.014-11.807,6.681c1.203,1.943,2.529,3.752,3.989,5.391
			c3.004-2.988,7.408-5.855,12.67-8.073c-1.536-1.456-2.867-3.082-3.993-4.828c-0.976,0.37-2.228,0.867-3.648,1.494
			C227.549,77.625,228.48,77.4,229.424,77.209z"/>
		<path fill="#FFFFFF" d="M271.444,87.224c-3.618,3.785-6.005,8.57-7.215,13.547c1.223-0.379,2.429-0.814,3.611-1.309
			c2.98-4.85,6.447-11.236,8.943-17.09C275.043,83.711,273.163,85.337,271.444,87.224z"/>
		<path fill="#FFFFFF" d="M252.79,75.431c-0.021-0.462-0.036-0.937-0.061-1.386c-0.02-0.025,0.231,0.484,0.605,1.411h20.254
			c-2.484,8.05-8.837,12.227-17.339,12.961c0.256,4.326-0.19,9.231-2.163,14.15c1.415-0.072,2.828-0.217,4.235-0.436
			c0.4-1.605,1.021-3.454,1.991-5.446c2.298-5.328,8.693-11.462,17.142-15.935c0.466-1.159,0.889-2.292,1.251-3.374
			c-0.009-0.011,0.062,1.002-0.018,2.738c1.402-0.698,2.852-1.354,4.348-1.947c0.106,0.018-1.809,1.025-4.398,2.842
			c-0.227,3.312-0.993,8.559-3.398,14.367c5.12-3.614,9.351-8.55,11.963-14.732c-0.225-3.232-0.703-6.396-1.52-9.283
			c-0.055-0.001,1.384,2.113,2.83,5.621c1.332-4.501,1.867-9.559,1.357-15.166h-47.74C241.589,68.392,245.392,75.16,252.79,75.431z"
			/>
		<path fill="#FFFFFF" d="M238.954,96.728c3.16-2.775,7.657-5.596,12.674-8.246c-4.004-0.229-7.621-1.192-10.785-2.728
			c-2.5,1.155-5.712,2.785-8.902,4.854c-1.743,1.1-3.403,2.334-4.914,3.664c2.805,2.136,5.855,3.859,9.056,5.173
			C236.888,98.567,237.826,97.658,238.954,96.728z"/>
		<path fill="#FFFFFF" d="M230.138,76.153c-6.113-9.689-5.76-23.003,3.521-32.157c14.41-14.19,41.91-6.38,46.2,7.26
			c13.31-16.06-6.38-29.04-27.39-29.04c-14.19,0-25.41,6.05-32.451,14.96c-9.572,12.047-11.776,29.352-3.745,44.409
			C220.389,79.418,225.057,77.525,230.138,76.153z"/>
		<path fill="#FFFFFF" d="M250.68,96.392c0.601-1.76,1.048-3.643,1.381-5.583c-4.327,2.97-8.628,6.474-11.485,10.184
			c2.531,0.716,5.117,1.196,7.717,1.438C249.122,100.694,249.979,98.647,250.68,96.392z"/>
		<path fill="#FFFFFF" d="M235.093,81.938c-1.999,1.133-4.163,2.545-6.11,4.244c-1.911,1.671-3.569,3.64-4.758,5.734
			c0.185,0.17,0.369,0.338,0.556,0.504c4.243-2.684,9.628-5.168,15.298-7.07C238.254,84.391,236.589,83.243,235.093,81.938z"/>
	</g>
</g>
<g>
	<path fill="#FFFFFF" d="M89.508,115.886H87.66c-0.429,1.672-0.572,2.222-0.671,2.629h-0.957l1.826-7.173
		c0.132-0.396,0.451-0.616,0.737-0.616c0.275,0,0.616,0.242,0.715,0.594l1.859,7.195H90.19L89.508,115.886z M89.277,114.983
		l-0.561-2.739l-0.077-0.748h-0.088l-0.088,0.748c-0.22,0.88-0.374,1.858-0.583,2.739H89.277z"/>
	<path fill="#FFFFFF" d="M98.188,110.813v7.074c0,0.418-0.286,0.627-0.583,0.627c-0.22,0-0.517-0.154-0.627-0.396
		c-0.55-1.353-1.078-2.915-1.65-4.411c-0.198-0.528-0.418-1.596-0.517-1.882l-0.132,0.033l0.264,1.354l0.044,5.303h-0.935v-7.085
		c-0.011-0.407,0.297-0.649,0.616-0.649c0.264,0,0.594,0.165,0.649,0.44l-0.011-0.022l2.266,6.403h0.066l-0.319-1.452l-0.044-5.336
		H98.188z"/>
	<path fill="#FFFFFF" d="M103.566,115.192v3.322h-0.914v-3.345c-0.231-0.55-0.462-1.1-0.715-1.683
		c-0.352-0.793-0.825-1.915-1.133-2.674h0.968c0.319,0.727,0.957,2.42,1.243,3.136l0.099,0.594c0.011-0.088,0.066-0.506,0.088-0.604
		c0.253-0.616,0.99-2.553,1.232-3.125h0.99L103.566,115.192z"/>
	<path fill="#FFFFFF" d="M115.655,110.813c0.968,0,1.782,0.869,1.782,1.826v1.101c0,0.957-0.814,1.826-1.782,1.826h-1.353v2.948
		h-0.891v-6.986c0-0.418,0.341-0.715,0.704-0.715H115.655z M114.302,114.653h1.353c0.484,0,0.88-0.407,0.88-0.913v-1.101
		c0-0.495-0.396-0.913-0.88-0.913l-1.353,0.022V114.653z"/>
	<path fill="#FFFFFF" d="M122.685,115.886h-1.849c-0.429,1.672-0.572,2.222-0.671,2.629h-0.957l1.826-7.173
		c0.132-0.396,0.451-0.616,0.737-0.616c0.275,0,0.616,0.242,0.715,0.594l1.859,7.195h-0.979L122.685,115.886z M122.453,114.983
		l-0.561-2.739l-0.077-0.748h-0.088l-0.088,0.748c-0.22,0.88-0.374,1.858-0.583,2.739H122.453z"/>
	<path fill="#FFFFFF" d="M130.407,110.813v0.913h-1.804v6.788h-0.902v-6.788h-1.76v-0.913H130.407z"/>
	<path fill="#FFFFFF" d="M137.205,116.402c-0.011,1.441-1.067,2.179-2.079,2.179c-1.056,0-2.068-0.628-2.068-1.882v-4.093
		c0-1.254,1.001-1.881,2.057-1.881c1.023,0,2.068,0.737,2.09,2.189h-0.935c0-0.836-0.561-1.276-1.144-1.276
		c-0.594,0-1.166,0.341-1.166,0.968v4.093c0.011,0.627,0.583,0.969,1.166,0.969s1.144-0.44,1.144-1.266H137.205z"/>
	<path fill="#FFFFFF" d="M143.354,118.515v-3.355h-2.079v3.355h-0.902v-7.701h0.902v3.443h2.079v-3.443h0.913v7.701H143.354z"/>
	<path fill="#FFFFFF" d="M152.658,112.606c0-1.231,1.023-1.859,2.068-1.859s2.079,0.628,2.079,1.859v4.104
		c0,1.243-1.034,1.871-2.079,1.871s-2.068-0.628-2.068-1.871V112.606z M153.55,116.71c0,0.628,0.583,0.958,1.177,0.958
		s1.166-0.33,1.166-0.958v-4.104c0-0.616-0.572-0.945-1.166-0.945s-1.177,0.329-1.177,0.945V116.71z"/>
	<path fill="#FFFFFF" d="M163.493,111.727l-2.574,0.022v2.354h2.409v0.914h-2.409v3.498h-0.913v-6.986
		c0-0.418,0.363-0.715,0.727-0.715h2.761V111.727z"/>
	<path fill="#FFFFFF" d="M173.865,114.169h1.452c0.419,0,0.716,0.286,0.716,0.693v1.87c0,1.221-1.034,1.849-2.08,1.849
		c-1.056,0-2.09-0.639-2.09-1.893v-4.104c0-1.243,1.012-1.87,2.068-1.87c1.034,0,2.068,0.736,2.079,2.178h-0.924
		c0-0.836-0.572-1.265-1.155-1.265c-0.594,0-1.166,0.33-1.166,0.957v4.104c0,0.638,0.594,0.979,1.188,0.979
		c0.595,0,1.155-0.33,1.167-0.936v-1.661h-1.255V114.169z"/>
	<path fill="#FFFFFF" d="M179.948,110.803h1.496c1.046,0,1.815,0.77,1.815,1.815v1.144c0,0.474-0.439,1.331-1.155,1.387
		c0.76,0.077,1.188,0.901,1.188,1.396v1.97h-0.902v-1.97c0-0.527-0.638-0.935-1.144-0.935h-1.122v2.904h-0.892v-6.986
		C179.233,111.1,179.52,110.803,179.948,110.803z M180.125,111.716v2.981h1.122c0.495,0,1.11-0.407,1.11-0.936v-1.144
		c0-0.495-0.396-0.902-0.913-0.902H180.125z"/>
	<path fill="#FFFFFF" d="M189.738,115.886h-1.848c-0.43,1.672-0.572,2.222-0.672,2.629h-0.957l1.826-7.173
		c0.133-0.396,0.451-0.616,0.737-0.616c0.275,0,0.616,0.242,0.716,0.594l1.858,7.195h-0.979L189.738,115.886z M189.508,114.983
		l-0.562-2.739l-0.077-0.748h-0.088l-0.088,0.748c-0.22,0.88-0.374,1.858-0.583,2.739H189.508z"/>
	<path fill="#FFFFFF" d="M196.053,110.726c1.001,0,2.024,0.737,2.024,2.156h-0.902c0-0.814-0.562-1.243-1.122-1.243
		c-0.572,0-1.133,0.33-1.133,0.936v0.638c0,0.605,0.692,0.814,1.231,0.924c0.892,0.188,1.926,0.462,1.926,1.805v0.792
		c0,1.232-1.034,1.859-2.035,1.859c-1.046,0-2.024-0.737-2.014-2.167h0.892c0,0.824,0.55,1.243,1.122,1.243
		c0.561,0,1.133-0.33,1.133-0.936v-0.792c0-0.66-0.616-0.804-1.21-0.902c-0.957-0.187-1.926-0.407-1.937-1.826v-0.638
		C194.028,111.353,195.019,110.726,196.053,110.726z"/>
	<path fill="#FFFFFF" d="M203.191,110.726c1.001,0,2.024,0.737,2.024,2.156h-0.902c0-0.814-0.562-1.243-1.122-1.243
		c-0.572,0-1.133,0.33-1.133,0.936v0.638c0,0.605,0.692,0.814,1.231,0.924c0.892,0.188,1.926,0.462,1.926,1.805v0.792
		c0,1.232-1.034,1.859-2.035,1.859c-1.046,0-2.024-0.737-2.014-2.167h0.892c0,0.824,0.55,1.243,1.122,1.243
		c0.561,0,1.133-0.33,1.133-0.936v-0.792c0-0.66-0.616-0.804-1.21-0.902c-0.957-0.187-1.926-0.407-1.937-1.826v-0.638
		C201.167,111.353,202.157,110.726,203.191,110.726z"/>
</g>
</svg>
