<?xml version="1.0" encoding="utf-8"?>
<!-- Generator: Adobe Illustrator 16.0.0, SVG Export Plug-In . SVG Version: 6.00 Build 0)  -->
<!DOCTYPE svg PUBLIC "-//W3C//DTD SVG 1.1//EN" "http://www.w3.org/Graphics/SVG/1.1/DTD/svg11.dtd">
<svg version="1.1" id="Layer_1" xmlns="http://www.w3.org/2000/svg" xmlns:xlink="http://www.w3.org/1999/xlink" x="0px" y="0px"
	 width="292.249px" height="177.99px" viewBox="0 0 292.249 177.99" enable-background="new 0 0 292.249 177.99"
	 xml:space="preserve">
<g id="LOGO">
	<g>
		<path fill="#FFFFFF" d="M23.321,120.415c1.614,0.672,3.314,1.48,5.058,2.41c2.81-7.246,5.842-15.055,9.699-24.975l10.34,26.4
			c-4.948,0-10.788-0.439-15.479,1.25c1.642,1.047,3.293,2.188,4.925,3.438c2.648,2.24,5.398,4.693,7.88,7.346
			c0-0.041-0.008-0.08-0.007-0.121c-0.086-4.285,2.286-8.645,7.423-11.691c0.098-0.055-5.999,4.551-4.163,11.676
			c0.131,0.697,0.349,1.416,0.608,2.143c1.466,0.016,2.892,0.041,4.203,0.041l5.188,13.738c0.599,0.578,1.217,1.156,1.868,1.729
			c0.104,0.092,0.203,0.176,0.305,0.264h2.602c-0.963-1.922-2.037-4.117-2.87-6.551c-1.281-4.205-2.219-9.027-0.909-13.793
			c0.65-2.568,2.114-5.094,4.253-7.402L45.448,77.501c-10.12-1.76-15.511,2.091-18.48,9.79l-12.014,31.032
			C15.845,118.428,19.475,118.799,23.321,120.415z"/>
		<path fill="#FFFFFF" d="M12.822,147.133c-1.706-3.256-3.595-6.949-4.866-10.736l-4.413,11.398
			c2.282,1.988,4.647,4.104,6.973,6.266h5.704C15.006,151.979,13.969,149.612,12.822,147.133z"/>
		<path fill="#FFFFFF" d="M70.071,151.194c-1-2.961-1.332-6.461-0.039-9.848l-5.111-13.273c-0.89,1.682-1.56,3.619-1.689,5.795
			c-0.368,3.943,0.76,8.5,2.688,13.252c0.958,2.178,2.276,4.596,3.557,6.941h1.504C70.623,153.149,70.307,152.194,70.071,151.194z"
			/>
		<path fill="#FFFFFF" d="M2.148,151.397l-1.031,2.664h3.535C3.851,153.217,3.013,152.327,2.148,151.397z"/>
		<path fill="#FFFFFF" d="M16.619,144.739c0.372,0.607,0.748,1.221,1.126,1.836c0.304,0.49,0.589,0.99,0.867,1.494
			c0.091-0.234,0.18-0.465,0.27-0.697C18.169,146.526,17.416,145.647,16.619,144.739z"/>
		<path fill="#FFFFFF" d="M26.6,123.079c-2.961-1.969-6.472-3.857-11.648-4.75l-5.194,13.416c0.152,0.402,0.309,0.807,0.495,1.221
			c0.21,0.529,0.442,1.066,0.691,1.613c3.297,2.588,6.513,5.49,9.577,8.549c0.541-1.398,1.069-2.766,1.591-4.113
			c-3.299-2.68-7.102-5.271-10.936-7.494c-0.055-0.025-0.086-0.041-0.075-0.045c0.025,0.016,0.051,0.031,0.075,0.045
			c0.662,0.305,5.847,2.227,11.672,5.588c1.713-4.428,3.357-8.678,5.075-13.109C27.482,123.692,27.041,123.383,26.6,123.079z"/>
		<path fill="#FFFFFF" d="M34.858,129.461c-1.097-1.082-2.378-2.133-3.74-3.16c-0.771,0.408-1.501,0.891-2.171,1.471
			c-3.211,2.742-4.625,7.396-2.846,11.316c2.632,1.684,5.088,3.646,7.24,5.777c0.185,0.059,0.364,0.121,0.556,0.176
			c-0.675-2.178-0.099-3.66,1.269-4.67c-2.045-3.545-3.877-7.197-4.912-10.402c0.04-0.004,2.894,3.434,7.096,8.359
			c0.216,0.252,0.447,0.525,0.67,0.787c1.377-0.367,2.989-0.58,4.71-0.697C40.555,135.487,37.808,132.444,34.858,129.461z"/>
	</g>
	<g>
		<path fill="#FFFFFF" d="M80.389,132.327c-1.115,0.75-2.371,1.717-3.505,2.896v18.838h3.895c-1.139-2.463-2.724-6.059-2.601-10.053
			C77.958,140.446,78.245,136.321,80.389,132.327z"/>
		<path fill="#FFFFFF" d="M91.065,146.051c-0.017-0.221-0.034-0.449-0.051-0.672c-0.756,2.783-0.884,5.721-0.443,8.682h0.833
			c0-1.957,0-3.916,0-5.875C91.289,147.491,91.175,146.784,91.065,146.051z"/>
		<path fill="#FFFFFF" d="M84.633,130.889c-1.913,3.799-2.148,8.219-1.356,12.996c0.082,2.291,0.856,4.609,1.763,6.918
			c0.04-0.639,0.1-1.287,0.205-1.955c0.5-3.367,2.268-7.062,5.553-10.578c0.076-1.424,0.25-2.867,0.606-4.312
			c0-1.85,0-3.699,0-5.549c-0.631-1.195-1.288-2.371-1.977-3.508C87.418,126.504,85.62,128.493,84.633,130.889z"/>
		<path fill="#FFFFFF" d="M80.816,131.581c0.211-0.352,0.432-0.703,0.675-1.053c1.55-2.377,4.049-4.684,7.307-6.639
			c-0.371-0.586-0.747-1.164-1.133-1.727c-0.032,0.002,0.56,0.535,1.518,1.498c0.706-0.41,1.448-0.803,2.222-1.178
			c0-10.373,0-20.748,0-31.121h12.431c16.83,0,14.63,23.1,2.75,25.299c-3.3,0.551-10.891,0.111-12.431-2.969
			c-1.61,2.264-2.544,5.457-2.129,8.49c2.214-1.018,4.681-1.879,7.361-2.521c0.154-0.035-3.444,1.031-7.218,3.332
			c0.218,0.982,0.584,1.938,1.131,2.828c0.325,0.387,0.772,0.91,1.334,1.562c2.437-2.945,6.286-5.57,11.786-7.123
			c0.114,0.035-2.635,0.896-5.472,2.928c-1.937,1.361-3.594,3.291-4.674,5.605c1.323,0.848,2.992,1.5,5.049,1.885
			c4.112-2.115,8.802-3.922,13.584-5.301c0.325,0.061-5.576,1.857-11.599,5.578c0.789,0.072,1.619,0.115,2.506,0.115
			c30.8,0,35.86-54.009,0.11-54.009h-16.94c-8.8,0-12.1,5.5-12.1,13.529v43.115C78.088,132.938,79.409,132.225,80.816,131.581z"/>
		<path fill="#FFFFFF" d="M89.977,124.475c0.435,0.453,0.913,0.965,1.427,1.537c0-0.848,0-1.693,0-2.539
			C90.924,123.786,90.447,124.122,89.977,124.475z"/>
	</g>
	<g>
		<path fill="#FFFFFF" d="M145.689,137.907c1.992-1.418,4.154-2.807,6.439-4.146c-1.199-1.25-2.234-2.59-3.104-4.02
			c-0.26,0.133-0.521,0.271-0.785,0.412c-0.899,1.32-1.617,2.818-1.941,4.502C146.014,135.69,145.823,136.78,145.689,137.907z"/>
		<path fill="#FFFFFF" d="M170.501,141.84c-1.258-0.01-2.479-0.113-3.67-0.289c-0.266,1.801-0.439,3.674-0.578,5.598
			c-0.072,1.41-0.242,2.996-0.441,4.543c0.576-1.338,1.34-2.785,2.102-4.285C168.565,145.694,169.392,143.786,170.501,141.84z"/>
		<path fill="#FFFFFF" d="M174.897,149.327c1.393-3.857,5.377-7.969,10.975-11.568c-0.025-0.393-0.041-0.789-0.049-1.186
			c-3.252,2.625-6.898,4.283-10.938,4.945c-0.723,1.916-1.303,3.977-1.9,6.137c-0.898,2.742-2.676,5.721-2.381,8.164
			c0.053,0,0.102,0.002,0.154,0.002c0.746,0,1.482-0.021,2.211-0.057C173.239,153.844,173.95,151.651,174.897,149.327z"/>
		<path fill="#FFFFFF" d="M187.456,145.54c-0.529-1.602-0.977-3.322-1.271-5.107c-2.873,2.684-5.152,5.816-6.203,9.088
			c-0.455,1.807-1.07,3.723-1.336,5.586c3.729-0.705,7.225-1.936,10.504-3.682c0.062-0.189,0.133-0.389,0.199-0.58
			C188.64,149.198,188.028,147.413,187.456,145.54z"/>
		<path fill="#FFFFFF" d="M160.302,139.637c-2.02-0.924-3.926-2.125-5.713-3.615c-0.369-0.299-0.725-0.602-1.07-0.912
			c-0.443,0.316-0.887,0.635-1.334,0.965c-2.359,1.783-4.667,3.77-6.732,5.9c-0.01,1.674,0.063,3.408,0.167,5.176
			c1.134,0.939,2.305,1.801,3.514,2.586c0.471-0.561,0.973-1.125,1.541-1.701C153.153,145.377,156.157,142.395,160.302,139.637z"/>
		<path fill="#FFFFFF" d="M161.628,91.362c2.75-0.991,5.611-1.431,8.801-1.431c7.039,0,12.869,2.531,17.82,7.48
			c4.84,5.061,7.26,11.221,7.26,18.48c0,1.111-0.074,2.182-0.184,3.232c0.361-0.23,0.734-0.455,1.119-0.676
			c0.021-0.012-0.455,0.332-1.16,0.979c-0.592,5.15-2.514,9.607-5.77,13.498c0.023,0.834,0.102,1.693,0.221,2.57
			c4.551-2.428,9.846-4.496,15.516-5.908c0.219,0.045-7.941,2.596-15.209,7.727c0.42,2.098,1.072,4.285,1.922,6.525
			c1.297-3.238,2.713-6.498,4.086-9.361c0.197-0.068-0.066,5.822-1.162,13.178c1.309-1.033,2.58-2.154,3.811-3.383
			c7.701-7.701,11.439-17.16,11.439-28.271c0-11.219-3.85-20.789-11.66-28.599c-7.699-7.81-17.049-11.771-27.83-11.771
			c-7.148,0-13.75,1.761-20.02,5.391c-4.29,2.53-8.03,5.72-11.11,9.569C146.558,86.191,156.349,86.521,161.628,91.362z"/>
		<path fill="#FFFFFF" d="M137.483,138.147c0.905,1.348,1.902,2.656,2.993,3.93c0.174-0.158,0.348-0.316,0.526-0.475
			c0.345-2.355,0.937-4.791,2.093-7.199c0.27-0.58,0.585-1.16,0.94-1.734c-1.607,1.078-3.185,2.293-4.628,3.648
			C138.745,136.903,138.108,137.52,137.483,138.147z"/>
		<path fill="#FFFFFF" d="M138.748,118.147c0.201-0.025-3.312,0.799-7.614,2.701c0.636,5.457,2.292,10.52,5.003,15.166
			c2.818-2.119,6.066-4.115,9.756-5.846c0.647-0.736,1.374-1.453,2.185-2.139c-1.511-3.062-2.343-6.512-2.509-10.379
			c-0.55-14.41,11.55-17.49,17.16-10.779c4.621-17.82-21.78-20.68-28.93-6.381c-2.199,4.291-2.97,10.891-2.97,15.18
			c0,1.559,0.086,3.086,0.239,4.586C133.479,119.407,136.052,118.692,138.748,118.147z"/>
		<path fill="#FFFFFF" d="M161.146,147.124c0.334-1.812,0.713-3.75,1.279-5.732c-2.564,2.195-4.809,4.65-6.871,7.27
			c-0.881,1.094-1.697,2.213-2.42,3.344c2.125,1.027,4.355,1.838,6.682,2.449C160.095,152.305,160.837,149.846,161.146,147.124z"/>
	</g>
	<g>
		<path fill="#FFFFFF" d="M229.425,128.518c0.24,0.008-7.486,2.014-11.807,6.682c1.203,1.943,2.529,3.752,3.988,5.391
			c3.004-2.988,7.408-5.855,12.67-8.074c-1.535-1.455-2.867-3.082-3.992-4.828c-0.977,0.371-2.229,0.867-3.648,1.494
			C227.55,128.934,228.479,128.709,229.425,128.518z"/>
		<path fill="#FFFFFF" d="M271.444,138.534c-3.619,3.785-6.006,8.57-7.215,13.547c1.223-0.379,2.428-0.814,3.611-1.309
			c2.98-4.85,6.447-11.236,8.943-17.09C275.044,135.02,273.163,136.647,271.444,138.534z"/>
		<path fill="#FFFFFF" d="M252.79,126.741c-0.021-0.463-0.037-0.938-0.061-1.387c-0.02-0.025,0.23,0.484,0.605,1.412h20.254
			c-2.484,8.049-8.838,12.227-17.34,12.961c0.256,4.326-0.189,9.23-2.162,14.15c1.414-0.072,2.828-0.217,4.234-0.436
			c0.4-1.605,1.021-3.455,1.992-5.447c2.297-5.328,8.693-11.461,17.141-15.934c0.467-1.16,0.889-2.293,1.252-3.375
			c-0.01-0.01,0.061,1.002-0.018,2.738c1.402-0.697,2.852-1.354,4.348-1.947c0.105,0.018-1.809,1.025-4.398,2.842
			c-0.227,3.312-0.994,8.559-3.398,14.367c5.119-3.613,9.35-8.549,11.963-14.732c-0.225-3.232-0.703-6.396-1.52-9.283
			c-0.055,0,1.383,2.113,2.83,5.621c1.332-4.5,1.867-9.559,1.357-15.166h-47.74C241.589,119.702,245.392,126.469,252.79,126.741z"/>
		<path fill="#FFFFFF" d="M238.954,148.038c3.16-2.775,7.656-5.596,12.674-8.246c-4.004-0.23-7.621-1.193-10.785-2.729
			c-2.5,1.156-5.713,2.785-8.902,4.855c-1.744,1.1-3.404,2.334-4.914,3.664c2.805,2.135,5.855,3.859,9.055,5.172
			C236.888,149.877,237.825,148.967,238.954,148.038z"/>
		<path fill="#FFFFFF" d="M230.138,127.463c-6.113-9.689-5.76-23.004,3.521-32.158c14.41-14.189,41.91-6.379,46.199,7.26
			c13.311-16.059-6.379-29.04-27.389-29.04c-14.191,0-25.41,6.051-32.451,14.96c-9.572,12.046-11.777,29.351-3.746,44.41
			C220.39,130.727,225.058,128.834,230.138,127.463z"/>
		<path fill="#FFFFFF" d="M250.681,147.702c0.6-1.76,1.047-3.643,1.381-5.584c-4.328,2.971-8.629,6.475-11.486,10.184
			c2.531,0.717,5.117,1.197,7.717,1.439C249.122,152.004,249.979,149.958,250.681,147.702z"/>
		<path fill="#FFFFFF" d="M235.093,133.249c-1.998,1.133-4.162,2.545-6.109,4.244c-1.912,1.67-3.57,3.639-4.758,5.734
			c0.184,0.17,0.369,0.338,0.555,0.504c4.244-2.684,9.629-5.168,15.299-7.07C238.255,135.7,236.589,134.553,235.093,133.249z"/>
	</g>
</g>
<g>
	<path fill="#FFFFFF" d="M38.181,169.293h-3.025c-0.702,2.738-0.937,3.639-1.099,4.305h-1.566l2.989-11.74
		c0.216-0.648,0.738-1.008,1.207-1.008c0.45,0,1.008,0.396,1.17,0.973l3.043,11.775h-1.603L38.181,169.293z M37.802,167.819
		l-0.918-4.484l-0.126-1.225h-0.144l-0.144,1.225c-0.36,1.441-0.612,3.043-0.955,4.484H37.802z"/>
	<path fill="#FFFFFF" d="M54.183,160.995v11.576c0,0.686-0.468,1.027-0.954,1.027c-0.36,0-0.847-0.252-1.026-0.648
		c-0.9-2.215-1.765-4.771-2.701-7.221c-0.324-0.863-0.684-2.611-0.846-3.078l-0.216,0.053l0.432,2.215l0.072,8.68h-1.53v-11.596
		c-0.018-0.666,0.486-1.062,1.008-1.062c0.432,0,0.972,0.27,1.062,0.721l-0.018-0.037l3.709,10.48h0.108l-0.522-2.377l-0.072-8.732
		H54.183z"/>
	<path fill="#FFFFFF" d="M64.784,168.161v5.438h-1.495v-5.475c-0.378-0.9-0.756-1.801-1.17-2.754
		c-0.576-1.297-1.35-3.133-1.854-4.375h1.584c0.522,1.188,1.566,3.961,2.035,5.131l0.162,0.973c0.018-0.145,0.108-0.828,0.144-0.99
		c0.414-1.008,1.621-4.178,2.017-5.113h1.621L64.784,168.161z"/>
	<path fill="#FFFFFF" d="M88.165,160.995c1.585,0,2.917,1.422,2.917,2.988v1.801c0,1.566-1.332,2.988-2.917,2.988h-2.214v4.826
		h-1.458v-11.434c0-0.684,0.558-1.17,1.152-1.17H88.165z M85.951,167.278h2.214c0.792,0,1.44-0.666,1.44-1.494v-1.801
		c0-0.811-0.648-1.494-1.44-1.494l-2.214,0.035V167.278z"/>
	<path fill="#FFFFFF" d="M101.468,169.293h-3.025c-0.702,2.738-0.937,3.639-1.099,4.305h-1.566l2.989-11.74
		c0.216-0.648,0.738-1.008,1.207-1.008c0.45,0,1.008,0.396,1.17,0.973l3.043,11.775h-1.603L101.468,169.293z M101.089,167.819
		l-0.918-4.484l-0.126-1.225h-0.144l-0.144,1.225c-0.36,1.441-0.612,3.043-0.955,4.484H101.089z"/>
	<path fill="#FFFFFF" d="M115.904,160.995v1.494h-2.953v11.109h-1.477v-11.109h-2.881v-1.494H115.904z"/>
	<path fill="#FFFFFF" d="M128.828,170.141c-0.018,2.357-1.747,3.564-3.403,3.564c-1.729,0-3.385-1.025-3.385-3.078v-6.699
		c0-2.053,1.639-3.078,3.367-3.078c1.674,0,3.385,1.207,3.421,3.582h-1.53c0-1.367-0.918-2.088-1.873-2.088
		c-0.972,0-1.908,0.559-1.908,1.584v6.699c0.018,1.025,0.954,1.584,1.908,1.584c0.955,0,1.873-0.721,1.873-2.07H128.828z"/>
	<path fill="#FFFFFF" d="M140.69,173.598v-5.492h-3.403v5.492h-1.477v-12.604h1.477v5.635h3.403v-5.635h1.494v12.604H140.69z"/>
	<path fill="#FFFFFF" d="M159.516,163.928c0-2.016,1.675-3.043,3.385-3.043c1.711,0,3.403,1.027,3.403,3.043v6.717
		c0,2.035-1.692,3.061-3.403,3.061c-1.71,0-3.385-1.025-3.385-3.061V163.928z M160.974,170.645c0,1.025,0.955,1.566,1.927,1.566
		c0.973,0,1.909-0.541,1.909-1.566v-6.717c0-1.008-0.937-1.549-1.909-1.549c-0.972,0-1.927,0.541-1.927,1.549V170.645z"/>
	<path fill="#FFFFFF" d="M179.048,162.489l-4.214,0.035v3.854h3.943v1.494h-3.943v5.727h-1.494v-11.434
		c0-0.684,0.594-1.17,1.188-1.17h4.52V162.489z"/>
	<path fill="#FFFFFF" d="M199.62,166.485h2.376c0.685,0,1.171,0.469,1.171,1.135v3.061c0,2-1.692,3.025-3.403,3.025
		c-1.729,0-3.421-1.045-3.421-3.098v-6.715c0-2.035,1.656-3.061,3.385-3.061c1.692,0,3.386,1.205,3.403,3.564h-1.513
		c0-1.369-0.937-2.07-1.891-2.07c-0.972,0-1.908,0.539-1.908,1.566v6.715c0,1.045,0.972,1.604,1.944,1.604s1.891-0.541,1.908-1.531
		v-2.719h-2.052V166.485z"/>
	<path fill="#FFFFFF" d="M211.373,160.975h2.449c1.711,0,2.971,1.262,2.971,2.973v1.871c0,0.775-0.72,2.18-1.891,2.27
		c1.242,0.125,1.944,1.477,1.944,2.287v3.223h-1.476v-3.223c0-0.865-1.045-1.531-1.873-1.531h-1.837v4.754h-1.458v-11.434
		C210.203,161.461,210.671,160.975,211.373,160.975z M211.661,162.471v4.879h1.837c0.811,0,1.818-0.666,1.818-1.531v-1.871
		c0-0.811-0.648-1.477-1.494-1.477H211.661z"/>
	<path fill="#FFFFFF" d="M229.194,169.293h-3.025c-0.702,2.738-0.936,3.639-1.098,4.305h-1.566l2.988-11.74
		c0.216-0.648,0.738-1.008,1.207-1.008c0.45,0,1.008,0.396,1.17,0.973l3.043,11.775h-1.603L229.194,169.293z M228.816,167.819
		l-0.919-4.484l-0.126-1.225h-0.144l-0.145,1.225c-0.359,1.441-0.612,3.043-0.954,4.484H228.816z"/>
	<path fill="#FFFFFF" d="M241.326,160.85c1.639,0,3.313,1.207,3.313,3.529h-1.477c0-1.332-0.918-2.035-1.837-2.035
		c-0.936,0-1.854,0.541-1.854,1.531v1.043c0,0.99,1.135,1.334,2.017,1.514c1.459,0.305,3.151,0.756,3.151,2.953v1.295
		c0,2.018-1.692,3.043-3.331,3.043c-1.711,0-3.312-1.205-3.295-3.547h1.458c0,1.352,0.9,2.035,1.837,2.035
		c0.918,0,1.854-0.541,1.854-1.531v-1.295c0-1.082-1.008-1.314-1.98-1.477c-1.566-0.307-3.151-0.666-3.169-2.99v-1.043
		C238.014,161.875,239.634,160.85,241.326,160.85z"/>
	<path fill="#FFFFFF" d="M254.809,160.85c1.638,0,3.312,1.207,3.312,3.529h-1.477c0-1.332-0.918-2.035-1.836-2.035
		c-0.937,0-1.855,0.541-1.855,1.531v1.043c0,0.99,1.135,1.334,2.017,1.514c1.459,0.305,3.151,0.756,3.151,2.953v1.295
		c0,2.018-1.692,3.043-3.331,3.043c-1.71,0-3.312-1.205-3.295-3.547h1.458c0,1.352,0.9,2.035,1.837,2.035
		c0.918,0,1.854-0.541,1.854-1.531v-1.295c0-1.082-1.008-1.314-1.98-1.477c-1.566-0.307-3.151-0.666-3.169-2.99v-1.043
		C251.495,161.875,253.115,160.85,254.809,160.85z"/>
</g>
<g>
	<path fill="#FFFFFF" d="M56.261,6.518c0.836,0,1.453,0.66,1.453,1.408v10.342c0,2.552-2.112,3.895-4.203,3.895
		c-2.112,0-4.137-1.54-4.137-4.511H51.2c0,1.738,1.188,2.641,2.354,2.641c1.166,0,2.31-0.704,2.31-2.024l-0.044-9.924h-2.464V6.518
		H56.261z"/>
	<path fill="#FFFFFF" d="M72.365,6.518v11.838c0,2.486-2.068,3.74-4.158,3.74s-4.137-1.254-4.137-3.74V6.518h1.782
		c0,2.553,0,10.605,0,11.838c0.088,1.166,1.276,1.914,2.376,1.914c1.188,0,2.31-0.66,2.31-1.914V6.518H72.365z"/>
	<path fill="#FFFFFF" d="M80.284,21.92c-0.748,0.044-1.518-0.55-1.518-1.408V6.518h1.848l0.022,13.576h5.325v1.826H80.284z"/>
	<path fill="#FFFFFF" d="M93.155,15.275v6.645h-1.826V15.23c-0.462-1.1-0.924-2.2-1.43-3.366c-0.704-1.584-1.65-3.828-2.267-5.347
		h1.937c0.638,1.452,1.914,4.841,2.486,6.271l0.198,1.188c0.022-0.176,0.132-1.012,0.176-1.21c0.506-1.232,1.98-5.104,2.464-6.249
		h1.98L93.155,15.275z"/>
	<path fill="#FFFFFF" d="M120.633,12.612c-0.022,2.179-1.562,3.499-3.785,3.499c-1.122,0-2.244,0.572-2.244,1.76v2.289h5.721v1.76
		h-6.513c-0.836,0-0.946-0.22-0.946-0.99v-3.059c0-2.42,1.937-3.521,3.982-3.521c1.123,0,2.002-0.616,2.002-1.738v-2.024
		c0-1.166-1.034-1.782-2.09-1.782c-1.078,0-2.134,0.771-2.156,2.377h-1.738c0-2.751,1.914-4.159,3.895-4.159
		c1.893,0,3.873,1.166,3.873,3.564V12.612z"/>
	<path fill="#FFFFFF" d="M128.178,18.598c0-0.836,0.264-1.65,0.66-2.244c0.264-0.528,3.499-4.885,3.674-5.083
		c0.198-0.309,0.396-0.792,0.396-1.101V8.784h-6.095V7.002h6.909c0.594,0,0.924,0.33,0.924,0.946v2.244
		c0,0.726-0.22,1.519-0.726,2.156l-3.63,4.995v-0.022c-0.242,0.374-0.352,0.792-0.352,1.276v3.322h-1.76V18.598z"/>
	<path fill="#FFFFFF" d="M147.363,14.593v1.782h-6.799v-1.782H147.363z"/>
	<path fill="#FFFFFF" d="M161.97,12.612c-0.021,2.179-1.562,3.499-3.783,3.499c-1.123,0-2.244,0.572-2.244,1.76v2.289h5.721v1.76
		h-6.514c-0.836,0-0.945-0.22-0.945-0.99v-3.059c0-2.42,1.936-3.521,3.982-3.521c1.121,0,2.002-0.616,2.002-1.738v-2.024
		c0-1.166-1.035-1.782-2.09-1.782c-1.078,0-2.135,0.771-2.156,2.377h-1.738c0-2.751,1.914-4.159,3.895-4.159
		c1.891,0,3.871,1.166,3.871,3.564V12.612z"/>
	<path fill="#FFFFFF" d="M176.491,18.531c0,2.442-1.914,3.543-3.895,3.543c-1.123,0-2.244-0.286-3.5-1.585l1.365-1.166
		c0.748,0.771,1.43,0.969,2.135,0.969c1.078,0,2.156-0.572,2.156-1.761v-3.103c-0.463,1.013-1.496,1.387-2.201,1.387
		c-2.09,0-3.961-1.101-3.961-3.521v-2.729c0-2.421,1.959-3.587,3.961-3.587c1.959,0,3.939,1.166,3.939,3.587V18.531z
		 M170.329,13.295c0,1.166,1.057,1.76,2.223,1.76c1.1,0,2.201-0.594,2.201-1.826v-2.662c0-1.188-1.123-1.805-2.18-1.805
		c-1.1,0-2.199,0.616-2.244,1.805V13.295z"/>
	<path fill="#FFFFFF" d="M201.329,12.612c-0.021,2.179-1.562,3.499-3.785,3.499c-1.121,0-2.244,0.572-2.244,1.76v2.289h5.721v1.76
		h-6.514c-0.836,0-0.945-0.22-0.945-0.99v-3.059c0-2.42,1.936-3.521,3.982-3.521c1.123,0,2.002-0.616,2.002-1.738v-2.024
		c0-1.166-1.033-1.782-2.09-1.782c-1.078,0-2.135,0.771-2.156,2.377h-1.738c0-2.751,1.914-4.159,3.895-4.159
		c1.893,0,3.873,1.166,3.873,3.564V12.612z"/>
	<path fill="#FFFFFF" d="M207.948,10.588c0-2.376,1.959-3.542,4.006-3.542c1.957,0,3.959,1.166,3.959,3.542v7.855
		c0,2.442-2.002,3.608-3.959,3.608c-2.047,0-4.006-1.166-4.006-3.608V10.588z M209.71,18.443c0,1.21,1.1,1.826,2.244,1.826
		c1.078,0,2.199-0.616,2.199-1.826v-7.855c0-1.144-1.121-1.76-2.199-1.76c-1.145,0-2.244,0.616-2.244,1.76V18.443z"/>
	<path fill="#FFFFFF" d="M224.405,7.002c0.66,0,0.945,0.374,0.945,0.99V21.92h-1.76V8.784h-1.738V7.002H224.405z"/>
	<path fill="#FFFFFF" d="M235.866,6.804c1.893,0,3.873,1.145,3.873,3.499v1.21c0,0.924-0.572,2.2-1.781,2.618
		c1.188,0.22,1.869,1.716,1.869,2.662v1.673c0,2.464-2.023,3.652-3.982,3.652c-2.047,0-4.004-1.188-4.004-3.652v-1.673
		c0-0.924,0.703-2.42,2.002-2.641c-1.32-0.285-1.893-1.76-1.893-2.64v-1.21C231.95,7.948,233.864,6.804,235.866,6.804z
		 M235.317,15.033c-0.947,0.021-1.717,0.792-1.717,1.76v1.673c0,1.21,1.1,1.87,2.244,1.87c1.1,0,2.223-0.66,2.223-1.87v-1.673
		c0-0.968-0.77-1.738-1.695-1.76H235.317z M235.866,8.564c-1.1,0-2.178,0.615-2.178,1.738v1.21c0,0.99,0.682,1.782,1.695,1.804
		c0.264,0.022,0.594,0.022,0.9,0c0.99-0.021,1.695-0.836,1.695-1.804v-1.21C237.979,9.18,236.901,8.564,235.866,8.564z"/>
</g>
<rect x="39.586" y="0.5" fill="none" stroke="#FFFFFF" stroke-miterlimit="10" width="212.028" height="27.5"/>
</svg>
